# xmcd
#
# Track frame offsets: 
#        150
#        11097
#        23083
#        36738
#        49161
#        59879
#        70472
#        83921
#        97496
#        109435
#        120994
#        134002
#        144610
#        156674
#        166802
#        178143
#        189890
#        198790
#        209463
#        221100
#        232324
#        243767
#        254642
#        265634
#        277512
#
# Disc length: 3813 seconds
#
# Revision: 0
# Processed by: cddbd v1.5.2PL0 Copyright (c) Steve Scherf et al.
# Submitted via: ExactAudioCopyFreeDBPlugin 1.0
#
DISCID=8b0ee319
DTITLE=Billy Walker - Cross The Brazos At Waco - CD 3
DYEAR=1993
DGENRE=Country
TTITLE0=Kissing You
TTITLE1=You're The Only Good Thing (That's Happened To Me)
TTITLE2=Let Me Hear From You (1993)
TTITLE3=Let Me Hear From You (1955)
TTITLE4=Hey!
TTITLE5=Fool That I Am
TTITLE6=The Rocord
TTITLE7=Which One Of Us Is To Blame
TTITLE8=Let's Make Memories Tonight ( and Jeanette Hicks)
TTITLE9=Whirlpool
TTITLE10=Go Ahead And Make Me Cry
TTITLE11=The Most Important Thing
TTITLE12=Can't You Love Me Just A Little
TTITLE13=Blue Mountain Waltz ( and Jeanette Hicks)
TTITLE14=Why Does It Have To Be
TTITLE15=So Far
TTITLE16=Little Baggy Britches
TTITLE17=Leavin' On My Mind
TTITLE18=I'll Never Stand In Your Way
TTITLE19=Untamed Heart
TTITLE20=Especially For Fools
TTITLE21=If You Were Happy (Then I'm Satisfied)
TTITLE22=Headin' Down The Wrong Highway
TTITLE23=On My Mind Again (& The Crickets)
TTITLE24=Viva La Matador (& The Crickets)
EXTD=
EXTT0=
EXTT1=
EXTT2=
EXTT3=
EXTT4=
EXTT5=
EXTT6=
EXTT7=
EXTT8=
EXTT9=
EXTT10=
EXTT11=
EXTT12=
EXTT13=
EXTT14=
EXTT15=
EXTT16=
EXTT17=
EXTT18=
EXTT19=
EXTT20=
EXTT21=
EXTT22=
EXTT23=
EXTT24=
PLAYORDER=
